<svg
              width="100%"
              height="100%"
              viewBox="0 0 20 20"
              fill="none"
              xmlns="http://www.w3.org/2000/svg"
            >
              <path
                d="M16.668 6.66675H11.9913L12.9271 3.86091C13.0955 3.35425 13.0105 2.79258 12.698 2.35925C12.3855 1.92591 11.8788 1.66675 11.3446 1.66675H10.0013C9.7538 1.66675 9.51964 1.77675 9.36047 1.96675L5.4438 6.66675H3.33464C2.41547 6.66675 1.66797 7.41425 1.66797 8.33342V15.8334C1.66797 16.7526 2.41547 17.5001 3.33464 17.5001H14.4238C14.7629 17.499 15.0936 17.3949 15.3723 17.2018C15.651 17.0087 15.8645 16.7355 15.9846 16.4184L18.2821 10.2926C18.317 10.199 18.3348 10.0999 18.3346 10.0001V8.33342C18.3346 7.41425 17.5871 6.66675 16.668 6.66675ZM3.33464 8.33342H5.0013V15.8334H3.33464V8.33342ZM16.668 9.84925L14.4238 15.8334H6.66797V7.80175L10.3913 3.33341H11.3463L10.0446 7.23591C10.0024 7.36118 9.99059 7.49471 10.0103 7.62544C10.0299 7.75617 10.0805 7.88032 10.1577 7.98762C10.2349 8.09491 10.3366 8.18225 10.4543 8.24238C10.5721 8.30252 10.7024 8.33373 10.8346 8.33342H16.668V9.84925Z"
                fill="#a0a4ad"
              ></path>
            </svg>